# xmcd CD database file
#
# Track frame offsets:
#	183
#	18723
#	36125
#	52035
#	69765
#	91808
#	110040
#	126790
#	143645
#	158333
#	179730
#	198933
#	214418
#	233725
#	251630
#	268925
#	284808
#	302683
#
# Disc length: 4363 seconds
#
# Revision: 2
# Processed by: cddbd v1.5PL3 Copyright (c) Steve Scherf et al.
# Submitted via: CDex 1.51
#
DISCID=0d110912
DTITLE=Banda Cheiro de Amor - Banda Cheiro de Amor Ao Vivo
DYEAR=1998
DGENRE=Baiana
TTITLE0=Mente e Corpo
TTITLE1=É o ouro
TTITLE2=Auê 
TTITLE3=Canto Ao Pescador
TTITLE4=Canto Pro Mar
TTITLE5=Lero-Lero
TTITLE6=Milagre do Povo
TTITLE7=Eu Vou
TTITLE8=Nossa Gente
TTITLE9=Me Sinto Só
TTITLE10=Doce Obcessão
TTITLE11=Eu Quero é Mais
TTITLE12=O Que é O que é
TTITLE13=Fazer o bem
TTITLE14=Benção
TTITLE15=Gostava tanto de você
TTITLE16=Asa Branca
TTITLE17=Berimbau
EXTD=YEAR: 1998
EXTT0=
EXTT1=
EXTT2=
EXTT3=
EXTT4=
EXTT5=
EXTT6=
EXTT7=
EXTT8=
EXTT9=
EXTT10=
EXTT11=
EXTT12=
EXTT13=
EXTT14=
EXTT15=
EXTT16=
EXTT17=
PLAYORDER=
